<svg width="146" height="25" viewBox="0 0 146 18" fill="none" xmlns="http://www.w3.org/2000/svg">
    <path d="M8.30566 10.7656C8.30566 10.4668 8.25879 10.2031 8.16504 9.97461C8.07715 9.74023 7.91895 9.5293 7.69043 9.3418C7.46777 9.1543 7.15723 8.97559 6.75879 8.80566C6.36621 8.63574 5.86816 8.46289 5.26465 8.28711C4.63184 8.09961 4.06055 7.8916 3.55078 7.66309C3.04102 7.42871 2.60449 7.16211 2.24121 6.86328C1.87793 6.56445 1.59961 6.22168 1.40625 5.83496C1.21289 5.44824 1.11621 5.00586 1.11621 4.50781C1.11621 4.00977 1.21875 3.5498 1.42383 3.12793C1.62891 2.70605 1.92188 2.33984 2.30273 2.0293C2.68945 1.71289 3.14941 1.4668 3.68262 1.29102C4.21582 1.11523 4.81055 1.02734 5.4668 1.02734C6.42773 1.02734 7.24219 1.21191 7.91016 1.58105C8.58398 1.94434 9.09668 2.42188 9.44824 3.01367C9.7998 3.59961 9.97559 4.22656 9.97559 4.89453H8.28809C8.28809 4.41406 8.18555 3.98926 7.98047 3.62012C7.77539 3.24512 7.46484 2.95215 7.04883 2.74121C6.63281 2.52441 6.10547 2.41602 5.4668 2.41602C4.86328 2.41602 4.36523 2.50684 3.97266 2.68848C3.58008 2.87012 3.28711 3.11621 3.09375 3.42676C2.90625 3.7373 2.8125 4.0918 2.8125 4.49023C2.8125 4.75977 2.86816 5.00586 2.97949 5.22852C3.09668 5.44531 3.27539 5.64746 3.51562 5.83496C3.76172 6.02246 4.07227 6.19531 4.44727 6.35352C4.82812 6.51172 5.28223 6.66406 5.80957 6.81055C6.53613 7.01562 7.16309 7.24414 7.69043 7.49609C8.21777 7.74805 8.65137 8.03223 8.99121 8.34863C9.33691 8.65918 9.5918 9.01367 9.75586 9.41211C9.92578 9.80469 10.0107 10.25 10.0107 10.748C10.0107 11.2695 9.90527 11.7412 9.69434 12.1631C9.4834 12.585 9.18164 12.9453 8.78906 13.2441C8.39648 13.543 7.9248 13.7744 7.37402 13.9385C6.8291 14.0967 6.21973 14.1758 5.5459 14.1758C4.9541 14.1758 4.37109 14.0938 3.79688 13.9297C3.22852 13.7656 2.70996 13.5195 2.24121 13.1914C1.77832 12.8633 1.40625 12.459 1.125 11.9785C0.849609 11.4922 0.711914 10.9297 0.711914 10.291H2.39941C2.39941 10.7305 2.48438 11.1084 2.6543 11.4248C2.82422 11.7354 3.05566 11.9932 3.34863 12.1982C3.64746 12.4033 3.98438 12.5557 4.35938 12.6553C4.74023 12.749 5.13574 12.7959 5.5459 12.7959C6.1377 12.7959 6.63867 12.7139 7.04883 12.5498C7.45898 12.3857 7.76953 12.1514 7.98047 11.8467C8.19727 11.542 8.30566 11.1816 8.30566 10.7656ZM11.4961 9.35059V9.14844C11.4961 8.46289 11.5957 7.82715 11.7949 7.24121C11.9941 6.64941 12.2812 6.13672 12.6562 5.70312C13.0312 5.26367 13.4854 4.92383 14.0186 4.68359C14.5518 4.4375 15.1494 4.31445 15.8115 4.31445C16.4795 4.31445 17.0801 4.4375 17.6133 4.68359C18.1523 4.92383 18.6094 5.26367 18.9844 5.70312C19.3652 6.13672 19.6553 6.64941 19.8545 7.24121C20.0537 7.82715 20.1533 8.46289 20.1533 9.14844V9.35059C20.1533 10.0361 20.0537 10.6719 19.8545 11.2578C19.6553 11.8438 19.3652 12.3564 18.9844 12.7959C18.6094 13.2295 18.1553 13.5693 17.6221 13.8154C17.0947 14.0557 16.4971 14.1758 15.8291 14.1758C15.1611 14.1758 14.5605 14.0557 14.0273 13.8154C13.4941 13.5693 13.0371 13.2295 12.6562 12.7959C12.2812 12.3564 11.9941 11.8438 11.7949 11.2578C11.5957 10.6719 11.4961 10.0361 11.4961 9.35059ZM13.1221 9.14844V9.35059C13.1221 9.8252 13.1777 10.2734 13.2891 10.6953C13.4004 11.1113 13.5674 11.4805 13.79 11.8027C14.0186 12.125 14.3027 12.3799 14.6426 12.5674C14.9824 12.749 15.3779 12.8398 15.8291 12.8398C16.2744 12.8398 16.6641 12.749 16.998 12.5674C17.3379 12.3799 17.6191 12.125 17.8418 11.8027C18.0645 11.4805 18.2314 11.1113 18.3428 10.6953C18.46 10.2734 18.5186 9.8252 18.5186 9.35059V9.14844C18.5186 8.67969 18.46 8.2373 18.3428 7.82129C18.2314 7.39941 18.0615 7.02734 17.833 6.70508C17.6104 6.37695 17.3291 6.11914 16.9893 5.93164C16.6553 5.74414 16.2627 5.65039 15.8115 5.65039C15.3662 5.65039 14.9736 5.74414 14.6338 5.93164C14.2998 6.11914 14.0186 6.37695 13.79 6.70508C13.5674 7.02734 13.4004 7.39941 13.2891 7.82129C13.1777 8.2373 13.1221 8.67969 13.1221 9.14844ZM24.6182 14H22.9922V3.48828C22.9922 2.80273 23.1152 2.22559 23.3613 1.75684C23.6133 1.28223 23.9736 0.924805 24.4424 0.68457C24.9111 0.438477 25.4678 0.31543 26.1123 0.31543C26.2998 0.31543 26.4873 0.327148 26.6748 0.350586C26.8682 0.374023 27.0557 0.40918 27.2373 0.456055L27.1494 1.7832C27.0264 1.75391 26.8857 1.7334 26.7275 1.72168C26.5752 1.70996 26.4229 1.7041 26.2705 1.7041C25.9248 1.7041 25.626 1.77441 25.374 1.91504C25.1279 2.0498 24.9404 2.24902 24.8115 2.5127C24.6826 2.77637 24.6182 3.10156 24.6182 3.48828V14ZM26.6396 4.49023V5.73828H21.4893V4.49023H26.6396ZM32.4316 4.49023V5.73828H27.29V4.49023H32.4316ZM29.0303 2.17871H30.6562V11.6445C30.6562 11.9668 30.7061 12.21 30.8057 12.374C30.9053 12.5381 31.0342 12.6465 31.1924 12.6992C31.3506 12.752 31.5205 12.7783 31.7021 12.7783C31.8369 12.7783 31.9775 12.7666 32.124 12.7432C32.2764 12.7139 32.3906 12.6904 32.4668 12.6729L32.4756 14C32.3467 14.041 32.1768 14.0791 31.9658 14.1143C31.7607 14.1553 31.5117 14.1758 31.2188 14.1758C30.8203 14.1758 30.4541 14.0967 30.1201 13.9385C29.7861 13.7803 29.5195 13.5166 29.3203 13.1475C29.127 12.7725 29.0303 12.2686 29.0303 11.6357V2.17871ZM36.7471 12.3125L39.1904 4.49023H40.2627L40.0518 6.0459L37.5645 14H36.5186L36.7471 12.3125ZM35.1035 4.49023L37.1865 12.4004L37.3359 14H36.2373L33.4775 4.49023H35.1035ZM42.6006 12.3389L44.5869 4.49023H46.2041L43.4443 14H42.3545L42.6006 12.3389ZM40.5 4.49023L42.8906 12.1807L43.1631 14H42.126L39.5684 6.02832L39.3574 4.49023H40.5ZM53.4814 12.374V7.47852C53.4814 7.10352 53.4053 6.77832 53.2529 6.50293C53.1064 6.22168 52.8838 6.00488 52.585 5.85254C52.2861 5.7002 51.917 5.62402 51.4775 5.62402C51.0674 5.62402 50.707 5.69434 50.3965 5.83496C50.0918 5.97559 49.8516 6.16016 49.6758 6.38867C49.5059 6.61719 49.4209 6.86328 49.4209 7.12695H47.7949C47.7949 6.78711 47.8828 6.4502 48.0586 6.11621C48.2344 5.78223 48.4863 5.48047 48.8145 5.21094C49.1484 4.93555 49.5469 4.71875 50.0098 4.56055C50.4785 4.39648 51 4.31445 51.5742 4.31445C52.2656 4.31445 52.875 4.43164 53.4023 4.66602C53.9355 4.90039 54.3516 5.25488 54.6504 5.72949C54.9551 6.19824 55.1074 6.78711 55.1074 7.49609V11.9258C55.1074 12.2422 55.1338 12.5791 55.1865 12.9365C55.2451 13.2939 55.3301 13.6016 55.4414 13.8594V14H53.7451C53.6631 13.8125 53.5986 13.5635 53.5518 13.2529C53.5049 12.9365 53.4814 12.6436 53.4814 12.374ZM53.7627 8.23438L53.7803 9.37695H52.1367C51.6738 9.37695 51.2607 9.41504 50.8975 9.49121C50.5342 9.56152 50.2295 9.66992 49.9834 9.81641C49.7373 9.96289 49.5498 10.1475 49.4209 10.3701C49.292 10.5869 49.2275 10.8418 49.2275 11.1348C49.2275 11.4336 49.2949 11.7061 49.4297 11.9521C49.5645 12.1982 49.7666 12.3945 50.0361 12.541C50.3115 12.6816 50.6484 12.752 51.0469 12.752C51.5449 12.752 51.9844 12.6465 52.3652 12.4355C52.7461 12.2246 53.0479 11.9668 53.2705 11.6621C53.499 11.3574 53.6221 11.0615 53.6396 10.7744L54.334 11.5566C54.293 11.8027 54.1816 12.0752 54 12.374C53.8184 12.6729 53.5752 12.96 53.2705 13.2354C52.9717 13.5049 52.6143 13.7305 52.1982 13.9121C51.7881 14.0879 51.3252 14.1758 50.8096 14.1758C50.165 14.1758 49.5996 14.0498 49.1133 13.7979C48.6328 13.5459 48.2578 13.209 47.9883 12.7871C47.7246 12.3594 47.5928 11.8818 47.5928 11.3545C47.5928 10.8447 47.6924 10.3965 47.8916 10.0098C48.0908 9.61719 48.3779 9.29199 48.7529 9.03418C49.1279 8.77051 49.5791 8.57129 50.1064 8.43652C50.6338 8.30176 51.2227 8.23438 51.873 8.23438H53.7627ZM59.291 5.98438V14H57.665V4.49023H59.2471L59.291 5.98438ZM62.2617 4.4375L62.2529 5.94922C62.1182 5.91992 61.9893 5.90234 61.8662 5.89648C61.749 5.88477 61.6143 5.87891 61.4619 5.87891C61.0869 5.87891 60.7559 5.9375 60.4688 6.05469C60.1816 6.17188 59.9385 6.33594 59.7393 6.54688C59.54 6.75781 59.3818 7.00977 59.2646 7.30273C59.1533 7.58984 59.0801 7.90625 59.0449 8.25195L58.5879 8.51562C58.5879 7.94141 58.6436 7.40234 58.7549 6.89844C58.8721 6.39453 59.0508 5.94922 59.291 5.5625C59.5312 5.16992 59.8359 4.86523 60.2051 4.64844C60.5801 4.42578 61.0254 4.31445 61.541 4.31445C61.6582 4.31445 61.793 4.3291 61.9453 4.3584C62.0977 4.38184 62.2031 4.4082 62.2617 4.4375ZM67.5352 14.1758C66.873 14.1758 66.2725 14.0645 65.7334 13.8418C65.2002 13.6133 64.7402 13.2939 64.3535 12.8838C63.9727 12.4736 63.6797 11.9873 63.4746 11.4248C63.2695 10.8623 63.167 10.2471 63.167 9.5791V9.20996C63.167 8.43652 63.2812 7.74805 63.5098 7.14453C63.7383 6.53516 64.0488 6.01953 64.4414 5.59766C64.834 5.17578 65.2793 4.85645 65.7773 4.63965C66.2754 4.42285 66.791 4.31445 67.3242 4.31445C68.0039 4.31445 68.5898 4.43164 69.082 4.66602C69.5801 4.90039 69.9873 5.22852 70.3037 5.65039C70.6201 6.06641 70.8545 6.55859 71.0068 7.12695C71.1592 7.68945 71.2354 8.30469 71.2354 8.97266V9.70215H64.1338V8.375H69.6094V8.25195C69.5859 7.83008 69.498 7.41992 69.3457 7.02148C69.1992 6.62305 68.9648 6.29492 68.6426 6.03711C68.3203 5.7793 67.8809 5.65039 67.3242 5.65039C66.9551 5.65039 66.6152 5.72949 66.3047 5.8877C65.9941 6.04004 65.7275 6.26855 65.5049 6.57324C65.2822 6.87793 65.1094 7.25 64.9863 7.68945C64.8633 8.12891 64.8018 8.63574 64.8018 9.20996V9.5791C64.8018 10.0303 64.8633 10.4551 64.9863 10.8535C65.1152 11.2461 65.2998 11.5918 65.54 11.8906C65.7861 12.1895 66.082 12.4238 66.4277 12.5938C66.7793 12.7637 67.1777 12.8486 67.623 12.8486C68.1973 12.8486 68.6836 12.7314 69.082 12.4971C69.4805 12.2627 69.8291 11.9492 70.1279 11.5566L71.1123 12.3389C70.9072 12.6494 70.6465 12.9453 70.3301 13.2266C70.0137 13.5078 69.624 13.7363 69.1611 13.9121C68.7041 14.0879 68.1621 14.1758 67.5352 14.1758ZM85.9746 12.6201V14H79.1982V12.6201H85.9746ZM79.541 1.20312V14H77.8447V1.20312H79.541ZM85.0781 6.70508V8.08496H79.1982V6.70508H85.0781ZM85.8867 1.20312V2.5918H79.1982V1.20312H85.8867ZM89.4551 6.52051V14H87.8291V4.49023H89.3672L89.4551 6.52051ZM89.0684 8.88477L88.3916 8.8584C88.3975 8.20801 88.4941 7.60742 88.6816 7.05664C88.8691 6.5 89.1328 6.0166 89.4727 5.60645C89.8125 5.19629 90.2168 4.87988 90.6855 4.65723C91.1602 4.42871 91.6846 4.31445 92.2588 4.31445C92.7275 4.31445 93.1494 4.37891 93.5244 4.50781C93.8994 4.63086 94.2188 4.83008 94.4824 5.10547C94.752 5.38086 94.957 5.73828 95.0977 6.17773C95.2383 6.61133 95.3086 7.1416 95.3086 7.76855V14H93.6738V7.75098C93.6738 7.25293 93.6006 6.85449 93.4541 6.55566C93.3076 6.25098 93.0938 6.03125 92.8125 5.89648C92.5312 5.75586 92.1855 5.68555 91.7754 5.68555C91.3711 5.68555 91.002 5.77051 90.668 5.94043C90.3398 6.11035 90.0557 6.34473 89.8154 6.64355C89.5811 6.94238 89.3965 7.28516 89.2617 7.67188C89.1328 8.05273 89.0684 8.45703 89.0684 8.88477ZM103.939 4.49023H105.416V13.7979C105.416 14.6357 105.246 15.3506 104.906 15.9424C104.566 16.5342 104.092 16.9824 103.482 17.2871C102.879 17.5977 102.182 17.7529 101.391 17.7529C101.062 17.7529 100.676 17.7002 100.23 17.5947C99.791 17.4951 99.3574 17.3223 98.9297 17.0762C98.5078 16.8359 98.1533 16.5107 97.8662 16.1006L98.7188 15.1338C99.1172 15.6143 99.5332 15.9482 99.9668 16.1357C100.406 16.3232 100.84 16.417 101.268 16.417C101.783 16.417 102.229 16.3203 102.604 16.127C102.979 15.9336 103.269 15.6465 103.474 15.2656C103.685 14.8906 103.79 14.4277 103.79 13.877V6.58203L103.939 4.49023ZM97.3916 9.35059V9.16602C97.3916 8.43945 97.4766 7.78027 97.6465 7.18848C97.8223 6.59082 98.0713 6.07812 98.3936 5.65039C98.7217 5.22266 99.1172 4.89453 99.5801 4.66602C100.043 4.43164 100.564 4.31445 101.145 4.31445C101.742 4.31445 102.264 4.41992 102.709 4.63086C103.16 4.83594 103.541 5.1377 103.852 5.53613C104.168 5.92871 104.417 6.40332 104.599 6.95996C104.78 7.5166 104.906 8.14648 104.977 8.84961V9.6582C104.912 10.3555 104.786 10.9824 104.599 11.5391C104.417 12.0957 104.168 12.5703 103.852 12.9629C103.541 13.3555 103.16 13.6572 102.709 13.8682C102.258 14.0732 101.73 14.1758 101.127 14.1758C100.559 14.1758 100.043 14.0557 99.5801 13.8154C99.123 13.5752 98.7305 13.2383 98.4023 12.8047C98.0742 12.3711 97.8223 11.8613 97.6465 11.2754C97.4766 10.6836 97.3916 10.042 97.3916 9.35059ZM99.0176 9.16602V9.35059C99.0176 9.8252 99.0645 10.2705 99.1582 10.6865C99.2578 11.1025 99.4072 11.4688 99.6064 11.7852C99.8115 12.1016 100.072 12.3506 100.389 12.5322C100.705 12.708 101.083 12.7959 101.522 12.7959C102.062 12.7959 102.507 12.6816 102.858 12.4531C103.21 12.2246 103.488 11.9229 103.693 11.5479C103.904 11.1729 104.068 10.7656 104.186 10.3262V8.20801C104.121 7.88574 104.021 7.5752 103.887 7.27637C103.758 6.97168 103.588 6.70215 103.377 6.46777C103.172 6.22754 102.917 6.03711 102.612 5.89648C102.308 5.75586 101.95 5.68555 101.54 5.68555C101.095 5.68555 100.711 5.7793 100.389 5.9668C100.072 6.14844 99.8115 6.40039 99.6064 6.72266C99.4072 7.03906 99.2578 7.4082 99.1582 7.83008C99.0645 8.24609 99.0176 8.69141 99.0176 9.16602ZM109.652 4.49023V14H108.018V4.49023H109.652ZM107.895 1.96777C107.895 1.7041 107.974 1.48145 108.132 1.2998C108.296 1.11816 108.536 1.02734 108.853 1.02734C109.163 1.02734 109.4 1.11816 109.564 1.2998C109.734 1.48145 109.819 1.7041 109.819 1.96777C109.819 2.21973 109.734 2.43652 109.564 2.61816C109.4 2.79395 109.163 2.88184 108.853 2.88184C108.536 2.88184 108.296 2.79395 108.132 2.61816C107.974 2.43652 107.895 2.21973 107.895 1.96777ZM113.889 6.52051V14H112.263V4.49023H113.801L113.889 6.52051ZM113.502 8.88477L112.825 8.8584C112.831 8.20801 112.928 7.60742 113.115 7.05664C113.303 6.5 113.566 6.0166 113.906 5.60645C114.246 5.19629 114.65 4.87988 115.119 4.65723C115.594 4.42871 116.118 4.31445 116.692 4.31445C117.161 4.31445 117.583 4.37891 117.958 4.50781C118.333 4.63086 118.652 4.83008 118.916 5.10547C119.186 5.38086 119.391 5.73828 119.531 6.17773C119.672 6.61133 119.742 7.1416 119.742 7.76855V14H118.107V7.75098C118.107 7.25293 118.034 6.85449 117.888 6.55566C117.741 6.25098 117.527 6.03125 117.246 5.89648C116.965 5.75586 116.619 5.68555 116.209 5.68555C115.805 5.68555 115.436 5.77051 115.102 5.94043C114.773 6.11035 114.489 6.34473 114.249 6.64355C114.015 6.94238 113.83 7.28516 113.695 7.67188C113.566 8.05273 113.502 8.45703 113.502 8.88477ZM126.158 14.1758C125.496 14.1758 124.896 14.0645 124.356 13.8418C123.823 13.6133 123.363 13.2939 122.977 12.8838C122.596 12.4736 122.303 11.9873 122.098 11.4248C121.893 10.8623 121.79 10.2471 121.79 9.5791V9.20996C121.79 8.43652 121.904 7.74805 122.133 7.14453C122.361 6.53516 122.672 6.01953 123.064 5.59766C123.457 5.17578 123.902 4.85645 124.4 4.63965C124.898 4.42285 125.414 4.31445 125.947 4.31445C126.627 4.31445 127.213 4.43164 127.705 4.66602C128.203 4.90039 128.61 5.22852 128.927 5.65039C129.243 6.06641 129.478 6.55859 129.63 7.12695C129.782 7.68945 129.858 8.30469 129.858 8.97266V9.70215H122.757V8.375H128.232V8.25195C128.209 7.83008 128.121 7.41992 127.969 7.02148C127.822 6.62305 127.588 6.29492 127.266 6.03711C126.943 5.7793 126.504 5.65039 125.947 5.65039C125.578 5.65039 125.238 5.72949 124.928 5.8877C124.617 6.04004 124.351 6.26855 124.128 6.57324C123.905 6.87793 123.732 7.25 123.609 7.68945C123.486 8.12891 123.425 8.63574 123.425 9.20996V9.5791C123.425 10.0303 123.486 10.4551 123.609 10.8535C123.738 11.2461 123.923 11.5918 124.163 11.8906C124.409 12.1895 124.705 12.4238 125.051 12.5938C125.402 12.7637 125.801 12.8486 126.246 12.8486C126.82 12.8486 127.307 12.7314 127.705 12.4971C128.104 12.2627 128.452 11.9492 128.751 11.5566L129.735 12.3389C129.53 12.6494 129.27 12.9453 128.953 13.2266C128.637 13.5078 128.247 13.7363 127.784 13.9121C127.327 14.0879 126.785 14.1758 126.158 14.1758ZM135.703 14.1758C135.041 14.1758 134.44 14.0645 133.901 13.8418C133.368 13.6133 132.908 13.2939 132.521 12.8838C132.141 12.4736 131.848 11.9873 131.643 11.4248C131.438 10.8623 131.335 10.2471 131.335 9.5791V9.20996C131.335 8.43652 131.449 7.74805 131.678 7.14453C131.906 6.53516 132.217 6.01953 132.609 5.59766C133.002 5.17578 133.447 4.85645 133.945 4.63965C134.443 4.42285 134.959 4.31445 135.492 4.31445C136.172 4.31445 136.758 4.43164 137.25 4.66602C137.748 4.90039 138.155 5.22852 138.472 5.65039C138.788 6.06641 139.022 6.55859 139.175 7.12695C139.327 7.68945 139.403 8.30469 139.403 8.97266V9.70215H132.302V8.375H137.777V8.25195C137.754 7.83008 137.666 7.41992 137.514 7.02148C137.367 6.62305 137.133 6.29492 136.811 6.03711C136.488 5.7793 136.049 5.65039 135.492 5.65039C135.123 5.65039 134.783 5.72949 134.473 5.8877C134.162 6.04004 133.896 6.26855 133.673 6.57324C133.45 6.87793 133.277 7.25 133.154 7.68945C133.031 8.12891 132.97 8.63574 132.97 9.20996V9.5791C132.97 10.0303 133.031 10.4551 133.154 10.8535C133.283 11.2461 133.468 11.5918 133.708 11.8906C133.954 12.1895 134.25 12.4238 134.596 12.5938C134.947 12.7637 135.346 12.8486 135.791 12.8486C136.365 12.8486 136.852 12.7314 137.25 12.4971C137.648 12.2627 137.997 11.9492 138.296 11.5566L139.28 12.3389C139.075 12.6494 138.814 12.9453 138.498 13.2266C138.182 13.5078 137.792 13.7363 137.329 13.9121C136.872 14.0879 136.33 14.1758 135.703 14.1758ZM142.928 5.98438V14H141.302V4.49023H142.884L142.928 5.98438ZM145.898 4.4375L145.89 5.94922C145.755 5.91992 145.626 5.90234 145.503 5.89648C145.386 5.88477 145.251 5.87891 145.099 5.87891C144.724 5.87891 144.393 5.9375 144.105 6.05469C143.818 6.17188 143.575 6.33594 143.376 6.54688C143.177 6.75781 143.019 7.00977 142.901 7.30273C142.79 7.58984 142.717 7.90625 142.682 8.25195L142.225 8.51562C142.225 7.94141 142.28 7.40234 142.392 6.89844C142.509 6.39453 142.688 5.94922 142.928 5.5625C143.168 5.16992 143.473 4.86523 143.842 4.64844C144.217 4.42578 144.662 4.31445 145.178 4.31445C145.295 4.31445 145.43 4.3291 145.582 4.3584C145.734 4.38184 145.84 4.4082 145.898 4.4375Z" fill="white"/>
    <rect />
    <style>
        @-webkit-keyframes rect-animation {
            0% {
                x: 0%;
                y: 0%;
                width: 0%;
                height: 10%;
            }

            20% {
                x: 0%;
                y: 0%;
                width: 100%;
                height: 10%;
            }

            25% {
                x: 0%;
                y: 0%;
                width: 100%;
                height: 10%;
            }

            50% {
                x: 0%;
                y: 0%;
                width: 100%;
                height: 110%;
            }

            75% {
                x: 0%;
                y: 100%;
                width: 100%;
                height: 10%;
            }

            80% {
                x: 0%;
                y: 100%;
                width: 100%;
                height: 10%;
            }

            100% {
                x: 100%;
                y: 100%;
                width: 0%;
                height: 10%;
            }
        }

        @-moz-keyframes rect-animation {
            0% {
                x: 0%;
                y: 0%;
                width: 0%;
                height: 10%;
            }

            20% {
                x: 0%;
                y: 0%;
                width: 100%;
                height: 10%;
            }

            25% {
                x: 0%;
                y: 0%;
                width: 100%;
                height: 10%;
            }

            50% {
                x: 0%;
                y: 0%;
                width: 100%;
                height: 110%;
            }

            75% {
                x: 0%;
                y: 100%;
                width: 100%;
                height: 10%;
            }

            80% {
                x: 0%;
                y: 100%;
                width: 100%;
                height: 10%;
            }

            100% {
                x: 100%;
                y: 100%;
                width: 0%;
                height: 10%;
            }
        }

        @-o-keyframes rect-animation {
            0% {
                x: 0%;
                y: 0%;
                width: 0%;
                height: 10%;
            }

            20% {
                x: 0%;
                y: 0%;
                width: 100%;
                height: 10%;
            }

            25% {
                x: 0%;
                y: 0%;
                width: 100%;
                height: 10%;
            }

            50% {
                x: 0%;
                y: 0%;
                width: 100%;
                height: 110%;
            }

            75% {
                x: 0%;
                y: 100%;
                width: 100%;
                height: 10%;
            }

            80% {
                x: 0%;
                y: 100%;
                width: 100%;
                height: 10%;
            }

            100% {
                x: 100%;
                y: 100%;
                width: 0%;
                height: 10%;
            }
        }

        @keyframes rect-animation {
            0% {
                x: 0%;
                y: 0%;
                width: 0%;
                height: 10%;
            }

            20% {
                x: 0%;
                y: 0%;
                width: 100%;
                height: 10%;
            }

            25% {
                x: 0%;
                y: 0%;
                width: 100%;
                height: 10%;
            }

            50% {
                x: 0%;
                y: 0%;
                width: 100%;
                height: 110%;
            }

            75% {
                x: 0%;
                y: 100%;
                width: 100%;
                height: 10%;
            }

            80% {
                x: 0%;
                y: 100%;
                width: 100%;
                height: 10%;
            }

            100% {
                x: 100%;
                y: 100%;
                width: 0%;
                height: 10%;
            }
        }

        @-webkit-keyframes departure-text {
            from {
                fill: transparent;
                stroke: transparent;
            }

            to {
                fill: #FFF;
                stroke: #58a6ff;
            }
        }

        @-moz-keyframes departure-text {
            from {
                fill: transparent;
                stroke: transparent;
            }

            to {
                fill: #FFF;
                stroke: #58a6ff;
            }
        }

        @-o-keyframes departure-text {
            from {
                fill: transparent;
                stroke: transparent;
            }

            to {
                fill: #FFF;
                stroke: #58a6ff;
            }
        }

        @keyframes departure-text {
            from {
                fill: transparent;
                stroke: transparent;
            }

            to {
                fill: #FFF;
                stroke: #58a6ff;
            }
        }

        rect {
            height: 10%;
            fill: #58a6ff;
            -webkit-animation: rect-animation 2s linear forwards 9s;
            -moz-animation: rect-animation 2s linear forwards 9s;
            -o-animation: rect-animation 2s linear forwards 9s;
            animation: rect-animation 2s linear forwards 9s;
        }

        path {
            fill: transparent;
            stroke: transparent;
            stroke-width: 0.3;
            -webkit-animation: departure-text 0.8s ease-in-out forwards 10s;
            -moz-animation: departure-text 0.8s ease-in-out forwards 10s;
            -o-animation: departure-text 0.8s ease-in-out forwards 10s;
            animation: departure-text 0.8s ease-in-out forwards 10s;
        }
    </style>
</svg>