<svg width="115" height="35" viewBox="0 0 115 35" fill="none" xmlns="http://www.w3.org/2000/svg">
    <path d="M19.6699 27H16.2773L3.39258 7.27734V27H0V1.40625H3.39258L16.3125 21.2168V1.40625H19.6699V27Z" />
    <path
        d="M28.6875 27H25.4355V7.98047H28.6875V27ZM25.1719 2.93555C25.1719 2.4082 25.3301 1.96289 25.6465 1.59961C25.9746 1.23633 26.4551 1.05469 27.0879 1.05469C27.7207 1.05469 28.2012 1.23633 28.5293 1.59961C28.8574 1.96289 29.0215 2.4082 29.0215 2.93555C29.0215 3.46289 28.8574 3.90234 28.5293 4.25391C28.2012 4.60547 27.7207 4.78125 27.0879 4.78125C26.4551 4.78125 25.9746 4.60547 25.6465 4.25391C25.3301 3.90234 25.1719 3.46289 25.1719 2.93555Z" />
    <path
        d="M39.2168 18.1934L37.1777 20.3203V27H33.9258V0H37.1777V16.3301L38.918 14.2383L44.8418 7.98047H48.7969L41.3965 15.9258L49.6582 27H45.8438L39.2168 18.1934Z" />
    <path
        d="M51.293 17.3145C51.293 15.4512 51.6562 13.7754 52.3828 12.2871C53.1211 10.7988 54.1406 9.65039 55.4414 8.8418C56.7539 8.0332 58.248 7.62891 59.9238 7.62891C62.5137 7.62891 64.6055 8.52539 66.1992 10.3184C67.8047 12.1113 68.6074 14.4961 68.6074 17.4727V17.7012C68.6074 19.5527 68.25 21.2168 67.5352 22.6934C66.832 24.1582 65.8184 25.3008 64.4941 26.1211C63.1816 26.9414 61.6699 27.3516 59.959 27.3516C57.3809 27.3516 55.2891 26.4551 53.6836 24.6621C52.0898 22.8691 51.293 20.4961 51.293 17.543V17.3145ZM54.5625 17.7012C54.5625 19.8105 55.0488 21.5039 56.0215 22.7812C57.0059 24.0586 58.3184 24.6973 59.959 24.6973C61.6113 24.6973 62.9238 24.0527 63.8965 22.7637C64.8691 21.4629 65.3555 19.6465 65.3555 17.3145C65.3555 15.2285 64.8574 13.541 63.8613 12.252C62.877 10.9512 61.5645 10.3008 59.9238 10.3008C58.3184 10.3008 57.0234 10.9395 56.0391 12.2168C55.0547 13.4941 54.5625 15.3223 54.5625 17.7012Z" />
    <path d="M76.2188 27H72.9668V0H76.2188V27Z" />
    <path
        d="M93.1816 27C92.9941 26.625 92.8418 25.957 92.7246 24.9961C91.2129 26.5664 89.4082 27.3516 87.3105 27.3516C85.4355 27.3516 83.8945 26.8242 82.6875 25.7695C81.4922 24.7031 80.8945 23.3555 80.8945 21.7266C80.8945 19.7461 81.6445 18.2109 83.1445 17.1211C84.6562 16.0195 86.7773 15.4688 89.5078 15.4688H92.6719V13.9746C92.6719 12.8379 92.332 11.9355 91.6523 11.2676C90.9727 10.5879 89.9707 10.248 88.6465 10.248C87.4863 10.248 86.5137 10.541 85.7285 11.127C84.9434 11.7129 84.5508 12.4219 84.5508 13.2539H81.2812C81.2812 12.3047 81.6152 11.3906 82.2832 10.5117C82.9629 9.62109 83.877 8.91797 85.0254 8.40234C86.1855 7.88672 87.457 7.62891 88.8398 7.62891C91.0312 7.62891 92.748 8.17969 93.9902 9.28125C95.2324 10.3711 95.877 11.877 95.9238 13.7988V22.5527C95.9238 24.2988 96.1465 25.6875 96.5918 26.7188V27H93.1816ZM87.7852 24.5215C88.8047 24.5215 89.7715 24.2578 90.6855 23.7305C91.5996 23.2031 92.2617 22.5176 92.6719 21.6738V17.7715H90.123C86.1387 17.7715 84.1465 18.9375 84.1465 21.2695C84.1465 22.2891 84.4863 23.0859 85.166 23.6602C85.8457 24.2344 86.7188 24.5215 87.7852 24.5215Z" />
    <path
        d="M106.963 22.2363L111.393 7.98047H114.873L107.227 29.9355C106.043 33.0996 104.162 34.6816 101.584 34.6816L100.969 34.6289L99.7559 34.4004V31.7637L100.635 31.834C101.736 31.834 102.592 31.6113 103.201 31.166C103.822 30.7207 104.332 29.9062 104.73 28.7227L105.451 26.7891L98.666 7.98047H102.217L106.963 22.2363Z" />
    <style>
        @-webkit-keyframes stroke-animation {
            to {
                stroke-dashoffset: 0;
            }
        }

        @-moz-keyframes stroke-animation {
            to {
                stroke-dashoffset: 0;
            }
        }

        @-o-keyframes stroke-animation {
            to {
                stroke-dashoffset: 0;
            }
        }

        @keyframes stroke-animation {
            to {
                stroke-dashoffset: 0;
            }
        }

        @-webkit-keyframes fill-animation {
            from {
                fill: transparent;
            }

            to {
                fill: #00CBA9;
            }
        }

        @-moz-keyframes fill-animation {
            from {
                fill: transparent;
            }

            to {
                fill: #00CBA9;
            }
        }

        @-o-keyframes fill-animation {
            from {
                fill: transparent;
            }

            to {
                fill: #00CBA9;
            }
        }

        @keyframes fill-animation {
            from {
                fill: transparent;
            }

            to {
                fill: #00CBA9;
            }
        }

        svg {
            -webkit-animation: fill-animation 1s linear forwards 8s;
            -moz-animation: fill-animation 1s linear forwards 8s;
            -o-animation: fill-animation 1s linear forwards 8s;
            animation: fill-animation 1s linear forwards 8s;
        }

        path {
            stroke: #00CBA9;
        }

        path:nth-child(1) {
            stroke-dasharray: 152;
            stroke-dashoffset: 152;
            -webkit-animation: stroke-animation 2s linear forwards;
            -moz-animation: stroke-animation 2s linear forwards;
            -o-animation: stroke-animation 2s linear forwards;
            animation: stroke-animation 2s linear forwards;
        }

        path:nth-child(2) {
            stroke-dasharray: 57;
            stroke-dashoffset: 57;
            -webkit-animation: stroke-animation 2s linear forwards 0.9s;
            -moz-animation: stroke-animation 2s linear forwards 0.9s;
            -o-animation: stroke-animation 2s linear forwards 0.9s;
            animation: stroke-animation 2s linear forwards 0.9s;
        }

        path:nth-child(3) {
            stroke-dasharray: 115;
            stroke-dashoffset: 115;
            -webkit-animation: stroke-animation 2s linear forwards 1.5s;
            -moz-animation: stroke-animation 2s linear forwards 1.5s;
            -o-animation: stroke-animation 2s linear forwards 1.5s;
            animation: stroke-animation 2s linear forwards 1.5s;
        }

        path:nth-child(4) {
            stroke-dasharray: 100;
            stroke-dashoffset: 100;
            -webkit-animation: stroke-animation 2s linear forwards 2s;
            -moz-animation: stroke-animation 2s linear forwards 2s;
            -o-animation: stroke-animation 2s linear forwards 2s;
            animation: stroke-animation 2s linear forwards 2s;
        }

        path:nth-child(5) {
            stroke-dasharray: 61;
            stroke-dashoffset: 61;
            -webkit-animation: stroke-animation 2s linear forwards 2.5s;
            -moz-animation: stroke-animation 2s linear forwards 2.5s;
            -o-animation: stroke-animation 2s linear forwards 2.5s;
            animation: stroke-animation 2s linear forwards 2.5s;
        }

        path:nth-child(6) {
            stroke-dasharray: 113;
            stroke-dashoffset: 113;
            -webkit-animation: stroke-animation 2s linear forwards 3s;
            -moz-animation: stroke-animation 2s linear forwards 3s;
            -o-animation: stroke-animation 2s linear forwards 3s;
            animation: stroke-animation 2s linear forwards 3s;
        }

        path:nth-child(7) {
            stroke-dasharray: 102;
            stroke-dashoffset: 102;
            -webkit-animation: stroke-animation 2s linear forwards 3.2s;
            -moz-animation: stroke-animation 2s linear forwards 3.2s;
            -o-animation: stroke-animation 2s linear forwards 3.2s;
            animation: stroke-animation 2s linear forwards 3.2s;
        }
    </style>
</svg>