<svg width="162" height="25" viewBox="0 0 162 18" fill="none" xmlns="http://www.w3.org/2000/svg">
    <path
        d="M7.54297 8.34863H2.17285V14H0.485352V1.20312H8.41309V2.5918H2.17285V6.96875H7.54297V8.34863ZM15.8574 13.0596C15.2246 13.8037 14.2959 14.1758 13.0713 14.1758C12.0576 14.1758 11.2842 13.8828 10.751 13.2969C10.2236 12.7051 9.95703 11.832 9.95117 10.6777V4.49023H11.5771V10.6338C11.5771 12.0752 12.1631 12.7959 13.335 12.7959C14.5771 12.7959 15.4033 12.333 15.8135 11.4072V4.49023H17.4395V14H15.8926L15.8574 13.0596ZM21.6846 14H20.0586V0.5H21.6846V14ZM26.0615 14H24.4355V0.5H26.0615V14ZM32.0557 9.22754H27.7666V7.90039H32.0557V9.22754ZM37.6719 8.2959C36.2246 7.87988 35.1699 7.37012 34.5078 6.7666C33.8516 6.15723 33.5234 5.40723 33.5234 4.5166C33.5234 3.50879 33.9248 2.67676 34.7275 2.02051C35.5361 1.3584 36.585 1.02734 37.874 1.02734C38.7529 1.02734 39.5352 1.19727 40.2207 1.53711C40.9121 1.87695 41.4453 2.3457 41.8203 2.94336C42.2012 3.54102 42.3916 4.19434 42.3916 4.90332H40.6953C40.6953 4.12988 40.4492 3.52344 39.957 3.08398C39.4648 2.63867 38.7705 2.41602 37.874 2.41602C37.042 2.41602 36.3916 2.60059 35.9229 2.96973C35.46 3.33301 35.2285 3.83984 35.2285 4.49023C35.2285 5.01172 35.4482 5.4541 35.8877 5.81738C36.333 6.1748 37.0859 6.50293 38.1465 6.80176C39.2129 7.10059 40.0449 7.43164 40.6426 7.79492C41.2461 8.15234 41.6914 8.57129 41.9785 9.05176C42.2715 9.53223 42.418 10.0977 42.418 10.748C42.418 11.7852 42.0137 12.6172 41.2051 13.2441C40.3965 13.8652 39.3154 14.1758 37.9619 14.1758C37.083 14.1758 36.2627 14.0088 35.501 13.6748C34.7393 13.335 34.1504 12.8721 33.7344 12.2861C33.3242 11.7002 33.1191 11.0352 33.1191 10.291H34.8154C34.8154 11.0645 35.0996 11.6768 35.668 12.1279C36.2422 12.5732 37.0068 12.7959 37.9619 12.7959C38.8525 12.7959 39.5352 12.6143 40.0098 12.251C40.4844 11.8877 40.7217 11.3926 40.7217 10.7656C40.7217 10.1387 40.502 9.65527 40.0625 9.31543C39.623 8.96973 38.8262 8.62988 37.6719 8.2959ZM46.54 2.1875V4.49023H48.3154V5.74707H46.54V11.6445C46.54 12.0254 46.6191 12.3125 46.7773 12.5059C46.9355 12.6934 47.2051 12.7871 47.5859 12.7871C47.7734 12.7871 48.0312 12.752 48.3594 12.6816V14C47.9316 14.1172 47.5156 14.1758 47.1113 14.1758C46.3848 14.1758 45.8369 13.9561 45.4678 13.5166C45.0986 13.0771 44.9141 12.4531 44.9141 11.6445V5.74707H43.1826V4.49023H44.9141V2.1875H46.54ZM56.0938 14C56 13.8125 55.9238 13.4785 55.8652 12.998C55.1094 13.7832 54.207 14.1758 53.1582 14.1758C52.2207 14.1758 51.4502 13.9121 50.8467 13.3848C50.249 12.8516 49.9502 12.1777 49.9502 11.3633C49.9502 10.373 50.3252 9.60547 51.0752 9.06055C51.8311 8.50977 52.8916 8.23438 54.2568 8.23438H55.8389V7.4873C55.8389 6.91895 55.6689 6.46777 55.3291 6.13379C54.9893 5.79395 54.4883 5.62402 53.8262 5.62402C53.2461 5.62402 52.7598 5.77051 52.3672 6.06348C51.9746 6.35645 51.7783 6.71094 51.7783 7.12695H50.1436C50.1436 6.65234 50.3105 6.19531 50.6445 5.75586C50.9844 5.31055 51.4414 4.95898 52.0156 4.70117C52.5957 4.44336 53.2314 4.31445 53.9229 4.31445C55.0186 4.31445 55.877 4.58984 56.498 5.14062C57.1191 5.68555 57.4414 6.43848 57.4648 7.39941V11.7764C57.4648 12.6494 57.5762 13.3438 57.7988 13.8594V14H56.0938ZM53.3955 12.7607C53.9053 12.7607 54.3887 12.6289 54.8457 12.3652C55.3027 12.1016 55.6338 11.7588 55.8389 11.3369V9.38574H54.5645C52.5723 9.38574 51.5762 9.96875 51.5762 11.1348C51.5762 11.6445 51.7461 12.043 52.0859 12.3301C52.4258 12.6172 52.8623 12.7607 53.3955 12.7607ZM63.8281 12.8486C64.4082 12.8486 64.915 12.6729 65.3486 12.3213C65.7822 11.9697 66.0225 11.5303 66.0693 11.0029H67.6074C67.5781 11.5479 67.3906 12.0664 67.0449 12.5586C66.6992 13.0508 66.2363 13.4434 65.6562 13.7363C65.082 14.0293 64.4727 14.1758 63.8281 14.1758C62.5332 14.1758 61.502 13.7451 60.7344 12.8838C59.9727 12.0166 59.5918 10.833 59.5918 9.33301V9.06055C59.5918 8.13477 59.7617 7.31152 60.1016 6.59082C60.4414 5.87012 60.9277 5.31055 61.5605 4.91211C62.1992 4.51367 62.9521 4.31445 63.8193 4.31445C64.8857 4.31445 65.7705 4.63379 66.4736 5.27246C67.1826 5.91113 67.5605 6.74023 67.6074 7.75977H66.0693C66.0225 7.14453 65.7881 6.64062 65.3662 6.24805C64.9502 5.84961 64.4346 5.65039 63.8193 5.65039C62.9932 5.65039 62.3516 5.94922 61.8945 6.54688C61.4434 7.13867 61.2178 7.99707 61.2178 9.12207V9.42969C61.2178 10.5254 61.4434 11.3691 61.8945 11.9609C62.3457 12.5527 62.9902 12.8486 63.8281 12.8486ZM72.0898 9.59668L71.0703 10.6602V14H69.4443V0.5H71.0703V8.66504L71.9404 7.61914L74.9023 4.49023H76.8799L73.1797 8.46289L77.3105 14H75.4033L72.0898 9.59668ZM83.2783 14V1.20312H86.8906C88.0039 1.20312 88.9883 1.44922 89.8438 1.94141C90.6992 2.43359 91.3584 3.13379 91.8213 4.04199C92.29 4.9502 92.5273 5.99316 92.5332 7.1709V7.98828C92.5332 9.19531 92.2988 10.2529 91.8301 11.1611C91.3672 12.0693 90.7021 12.7666 89.835 13.2529C88.9736 13.7393 87.9688 13.9883 86.8203 14H83.2783ZM84.9658 2.5918V12.6201H86.7412C88.042 12.6201 89.0527 12.2158 89.7734 11.4072C90.5 10.5986 90.8633 9.44727 90.8633 7.95312V7.20605C90.8633 5.75293 90.5205 4.625 89.835 3.82227C89.1553 3.01367 88.1885 2.60352 86.9346 2.5918H84.9658ZM98.7822 14.1758C97.4932 14.1758 96.4443 13.7539 95.6357 12.9102C94.8271 12.0605 94.4229 10.9268 94.4229 9.50879V9.20996C94.4229 8.2666 94.6016 7.42578 94.959 6.6875C95.3223 5.94336 95.8262 5.36328 96.4707 4.94727C97.1211 4.52539 97.8242 4.31445 98.5801 4.31445C99.8164 4.31445 100.777 4.72168 101.463 5.53613C102.148 6.35059 102.491 7.5166 102.491 9.03418V9.71094H96.0488C96.0723 10.6484 96.3447 11.4072 96.8662 11.9873C97.3936 12.5615 98.0615 12.8486 98.8701 12.8486C99.4443 12.8486 99.9307 12.7314 100.329 12.4971C100.728 12.2627 101.076 11.9521 101.375 11.5654L102.368 12.3389C101.571 13.5635 100.376 14.1758 98.7822 14.1758ZM98.5801 5.65039C97.9238 5.65039 97.373 5.89062 96.9277 6.37109C96.4824 6.8457 96.207 7.51367 96.1016 8.375H100.865V8.25195C100.818 7.42578 100.596 6.78711 100.197 6.33594C99.7988 5.87891 99.2598 5.65039 98.5801 5.65039ZM107.396 11.7939L109.751 4.49023H111.412L108.002 14H106.763L103.317 4.49023H104.979L107.396 11.7939ZM116.8 14.1758C115.511 14.1758 114.462 13.7539 113.653 12.9102C112.845 12.0605 112.44 10.9268 112.44 9.50879V9.20996C112.44 8.2666 112.619 7.42578 112.977 6.6875C113.34 5.94336 113.844 5.36328 114.488 4.94727C115.139 4.52539 115.842 4.31445 116.598 4.31445C117.834 4.31445 118.795 4.72168 119.48 5.53613C120.166 6.35059 120.509 7.5166 120.509 9.03418V9.71094H114.066C114.09 10.6484 114.362 11.4072 114.884 11.9873C115.411 12.5615 116.079 12.8486 116.888 12.8486C117.462 12.8486 117.948 12.7314 118.347 12.4971C118.745 12.2627 119.094 11.9521 119.393 11.5654L120.386 12.3389C119.589 13.5635 118.394 14.1758 116.8 14.1758ZM116.598 5.65039C115.941 5.65039 115.391 5.89062 114.945 6.37109C114.5 6.8457 114.225 7.51367 114.119 8.375H118.883V8.25195C118.836 7.42578 118.613 6.78711 118.215 6.33594C117.816 5.87891 117.277 5.65039 116.598 5.65039ZM124.165 14H122.539V0.5H124.165V14ZM126.345 9.15723C126.345 8.22559 126.526 7.3877 126.89 6.64355C127.259 5.89941 127.769 5.3252 128.419 4.9209C129.075 4.5166 129.822 4.31445 130.66 4.31445C131.955 4.31445 133.001 4.7627 133.798 5.65918C134.601 6.55566 135.002 7.74805 135.002 9.23633V9.35059C135.002 10.2764 134.823 11.1084 134.466 11.8467C134.114 12.5791 133.607 13.1504 132.945 13.5605C132.289 13.9707 131.533 14.1758 130.678 14.1758C129.389 14.1758 128.343 13.7275 127.54 12.8311C126.743 11.9346 126.345 10.748 126.345 9.27148V9.15723ZM127.979 9.35059C127.979 10.4053 128.223 11.252 128.709 11.8906C129.201 12.5293 129.857 12.8486 130.678 12.8486C131.504 12.8486 132.16 12.5264 132.646 11.8818C133.133 11.2314 133.376 10.3232 133.376 9.15723C133.376 8.11426 133.127 7.27051 132.629 6.62598C132.137 5.97559 131.48 5.65039 130.66 5.65039C129.857 5.65039 129.21 5.96973 128.718 6.6084C128.226 7.24707 127.979 8.16113 127.979 9.35059ZM145.074 9.35059C145.074 10.7979 144.743 11.9639 144.081 12.8486C143.419 13.7334 142.522 14.1758 141.392 14.1758C140.237 14.1758 139.329 13.8096 138.667 13.0771V17.6562H137.041V4.49023H138.526L138.605 5.54492C139.268 4.72461 140.188 4.31445 141.365 4.31445C142.508 4.31445 143.41 4.74512 144.072 5.60645C144.74 6.46777 145.074 7.66602 145.074 9.20117V9.35059ZM143.448 9.16602C143.448 8.09375 143.22 7.24707 142.763 6.62598C142.306 6.00488 141.679 5.69434 140.882 5.69434C139.897 5.69434 139.159 6.13086 138.667 7.00391V11.5479C139.153 12.415 139.897 12.8486 140.899 12.8486C141.679 12.8486 142.297 12.541 142.754 11.9258C143.217 11.3047 143.448 10.3848 143.448 9.16602ZM151.095 14.1758C149.806 14.1758 148.757 13.7539 147.948 12.9102C147.14 12.0605 146.735 10.9268 146.735 9.50879V9.20996C146.735 8.2666 146.914 7.42578 147.271 6.6875C147.635 5.94336 148.139 5.36328 148.783 4.94727C149.434 4.52539 150.137 4.31445 150.893 4.31445C152.129 4.31445 153.09 4.72168 153.775 5.53613C154.461 6.35059 154.804 7.5166 154.804 9.03418V9.71094H148.361C148.385 10.6484 148.657 11.4072 149.179 11.9873C149.706 12.5615 150.374 12.8486 151.183 12.8486C151.757 12.8486 152.243 12.7314 152.642 12.4971C153.04 12.2627 153.389 11.9521 153.688 11.5654L154.681 12.3389C153.884 13.5635 152.688 14.1758 151.095 14.1758ZM150.893 5.65039C150.236 5.65039 149.686 5.89062 149.24 6.37109C148.795 6.8457 148.52 7.51367 148.414 8.375H153.178V8.25195C153.131 7.42578 152.908 6.78711 152.51 6.33594C152.111 5.87891 151.572 5.65039 150.893 5.65039ZM161.29 5.94922C161.044 5.9082 160.777 5.8877 160.49 5.8877C159.424 5.8877 158.7 6.3418 158.319 7.25V14H156.693V4.49023H158.275L158.302 5.58887C158.835 4.73926 159.591 4.31445 160.569 4.31445C160.886 4.31445 161.126 4.35547 161.29 4.4375V5.94922Z" />
    <rect />
    <style>
        @-webkit-keyframes rect-animation {
            0% {
                x: 0%;
                y: 0%;
                width: 0%;
                height: 10%;
            }

            20% {
                x: 0%;
                y: 0%;
                width: 100%;
                height: 10%;
            }

            25% {
                x: 0%;
                y: 0%;
                width: 100%;
                height: 10%;
            }

            50% {
                x: 0%;
                y: 0%;
                width: 100%;
                height: 110%;
            }

            75% {
                x: 0%;
                y: 100%;
                width: 100%;
                height: 10%;
            }

            80% {
                x: 0%;
                y: 100%;
                width: 100%;
                height: 10%;
            }

            100% {
                x: 100%;
                y: 100%;
                width: 0%;
                height: 10%;
            }
        }

        @-moz-keyframes rect-animation {
            0% {
                x: 0%;
                y: 0%;
                width: 0%;
                height: 10%;
            }

            20% {
                x: 0%;
                y: 0%;
                width: 100%;
                height: 10%;
            }

            25% {
                x: 0%;
                y: 0%;
                width: 100%;
                height: 10%;
            }

            50% {
                x: 0%;
                y: 0%;
                width: 100%;
                height: 110%;
            }

            75% {
                x: 0%;
                y: 100%;
                width: 100%;
                height: 10%;
            }

            80% {
                x: 0%;
                y: 100%;
                width: 100%;
                height: 10%;
            }

            100% {
                x: 100%;
                y: 100%;
                width: 0%;
                height: 10%;
            }
        }

        @-o-keyframes rect-animation {
            0% {
                x: 0%;
                y: 0%;
                width: 0%;
                height: 10%;
            }

            20% {
                x: 0%;
                y: 0%;
                width: 100%;
                height: 10%;
            }

            25% {
                x: 0%;
                y: 0%;
                width: 100%;
                height: 10%;
            }

            50% {
                x: 0%;
                y: 0%;
                width: 100%;
                height: 110%;
            }

            75% {
                x: 0%;
                y: 100%;
                width: 100%;
                height: 10%;
            }

            80% {
                x: 0%;
                y: 100%;
                width: 100%;
                height: 10%;
            }

            100% {
                x: 100%;
                y: 100%;
                width: 0%;
                height: 10%;
            }
        }

        @keyframes rect-animation {
            0% {
                x: 0%;
                y: 0%;
                width: 0%;
                height: 10%;
            }

            20% {
                x: 0%;
                y: 0%;
                width: 100%;
                height: 10%;
            }

            25% {
                x: 0%;
                y: 0%;
                width: 100%;
                height: 10%;
            }

            50% {
                x: 0%;
                y: 0%;
                width: 100%;
                height: 110%;
            }

            75% {
                x: 0%;
                y: 100%;
                width: 100%;
                height: 10%;
            }

            80% {
                x: 0%;
                y: 100%;
                width: 100%;
                height: 10%;
            }

            100% {
                x: 100%;
                y: 100%;
                width: 0%;
                height: 10%;
            }
        }

        @-webkit-keyframes departure-text {
            from {
                fill: transparent;
                stroke: transparent;
            }

            to {
                fill: #FFF;
                stroke: #00CBA9;
            }
        }

        @-moz-keyframes departure-text {
            from {
                fill: transparent;
                stroke: transparent;
            }

            to {
                fill: #FFF;
                stroke: #00CBA9;
            }
        }

        @-o-keyframes departure-text {
            from {
                fill: transparent;
                stroke: transparent;
            }

            to {
                fill: #FFF;
                stroke: #00CBA9;
            }
        }

        @keyframes departure-text {
            from {
                fill: transparent;
                stroke: transparent;
            }

            to {
                fill: #FFF;
                stroke: #00CBA9;
            }
        }

        rect {
            height: 10%;
            fill: #00CBA9;
            -webkit-animation: rect-animation 2s linear forwards 9s;
            -moz-animation: rect-animation 2s linear forwards 9s;
            -o-animation: rect-animation 2s linear forwards 9s;
            animation: rect-animation 2s linear forwards 9s;
        }

        path {
            fill: transparent;
            stroke: transparent;
            stroke-width: 0.3;
            -webkit-animation: departure-text 0.8s ease-in-out forwards 10s;
            -moz-animation: departure-text 0.8s ease-in-out forwards 10s;
            -o-animation: departure-text 0.8s ease-in-out forwards 10s;
            animation: departure-text 0.8s ease-in-out forwards 10s;
        }
    </style>
</svg>