<svg width="216" height="35" viewBox="0 0 216 35" fill="none" xmlns="http://www.w3.org/2000/svg">
<path d="M11.4434 22.5176L18.7559 1.40625H22.4473L12.9551 27H9.9668L0.492188 1.40625H4.16602L11.4434 22.5176Z" />
<path d="M32.502 27.3516C29.9238 27.3516 27.8262 26.5078 26.209 24.8203C24.5918 23.1211 23.7832 20.8535 23.7832 18.0176V17.4199C23.7832 15.5332 24.1406 13.8516 24.8555 12.375C25.582 10.8867 26.5898 9.72656 27.8789 8.89453C29.1797 8.05078 30.5859 7.62891 32.0977 7.62891C34.5703 7.62891 36.4922 8.44336 37.8633 10.0723C39.2344 11.7012 39.9199 14.0332 39.9199 17.0684V18.4219H27.0352C27.082 20.2969 27.627 21.8145 28.6699 22.9746C29.7246 24.123 31.0605 24.6973 32.6777 24.6973C33.8262 24.6973 34.7988 24.4629 35.5957 23.9941C36.3926 23.5254 37.0898 22.9043 37.6875 22.1309L39.6738 23.6777C38.0801 26.127 35.6895 27.3516 32.502 27.3516ZM32.0977 10.3008C30.7852 10.3008 29.6836 10.7812 28.793 11.7422C27.9023 12.6914 27.3516 14.0273 27.1406 15.75H36.668V15.5039C36.5742 13.8516 36.1289 12.5742 35.332 11.6719C34.5352 10.7578 33.457 10.3008 32.0977 10.3008Z" />
<path d="M52.8926 10.8984C52.4004 10.8164 51.8672 10.7754 51.293 10.7754C49.1602 10.7754 47.7129 11.6836 46.9512 13.5V27H43.6992V7.98047H46.8633L46.916 10.1777C47.9824 8.47852 49.4941 7.62891 51.4512 7.62891C52.084 7.62891 52.5645 7.71094 52.8926 7.875V10.8984Z" />
<path d="M63.4395 27.3516C60.8613 27.3516 58.7637 26.5078 57.1465 24.8203C55.5293 23.1211 54.7207 20.8535 54.7207 18.0176V17.4199C54.7207 15.5332 55.0781 13.8516 55.793 12.375C56.5195 10.8867 57.5273 9.72656 58.8164 8.89453C60.1172 8.05078 61.5234 7.62891 63.0352 7.62891C65.5078 7.62891 67.4297 8.44336 68.8008 10.0723C70.1719 11.7012 70.8574 14.0332 70.8574 17.0684V18.4219H57.9727C58.0195 20.2969 58.5645 21.8145 59.6074 22.9746C60.6621 24.123 61.998 24.6973 63.6152 24.6973C64.7637 24.6973 65.7363 24.4629 66.5332 23.9941C67.3301 23.5254 68.0273 22.9043 68.625 22.1309L70.6113 23.6777C69.0176 26.127 66.627 27.3516 63.4395 27.3516ZM63.0352 10.3008C61.7227 10.3008 60.6211 10.7812 59.7305 11.7422C58.8398 12.6914 58.2891 14.0273 58.0781 15.75H67.6055V15.5039C67.5117 13.8516 67.0664 12.5742 66.2695 11.6719C65.4727 10.7578 64.3945 10.3008 63.0352 10.3008Z" />
<path d="M85.7109 21.9551C85.7109 21.0762 85.377 20.3965 84.709 19.916C84.0527 19.4238 82.8984 19.002 81.2461 18.6504C79.6055 18.2988 78.2988 17.877 77.3262 17.3848C76.3652 16.8926 75.6504 16.3066 75.1816 15.627C74.7246 14.9473 74.4961 14.1387 74.4961 13.2012C74.4961 11.6426 75.1523 10.3242 76.4648 9.24609C77.7891 8.16797 79.4766 7.62891 81.5273 7.62891C83.6836 7.62891 85.4297 8.18555 86.7656 9.29883C88.1133 10.4121 88.7871 11.8359 88.7871 13.5703H85.5176C85.5176 12.6797 85.1367 11.9121 84.375 11.2676C83.625 10.623 82.6758 10.3008 81.5273 10.3008C80.3438 10.3008 79.418 10.5586 78.75 11.0742C78.082 11.5898 77.748 12.2637 77.748 13.0957C77.748 13.8809 78.0586 14.4727 78.6797 14.8711C79.3008 15.2695 80.4199 15.6504 82.0371 16.0137C83.666 16.377 84.9844 16.8105 85.9922 17.3145C87 17.8184 87.7441 18.4277 88.2246 19.1426C88.7168 19.8457 88.9629 20.707 88.9629 21.7266C88.9629 23.4258 88.2832 24.791 86.9238 25.8223C85.5645 26.8418 83.8008 27.3516 81.6328 27.3516C80.1094 27.3516 78.7617 27.082 77.5898 26.543C76.418 26.0039 75.498 25.2539 74.8301 24.293C74.1738 23.3203 73.8457 22.2715 73.8457 21.1465H77.0977C77.1562 22.2363 77.5898 23.1035 78.3984 23.748C79.2188 24.3809 80.2969 24.6973 81.6328 24.6973C82.8633 24.6973 83.8477 24.4512 84.5859 23.959C85.3359 23.4551 85.7109 22.7871 85.7109 21.9551Z" />
<path d="M96.4512 10.2832C97.8926 8.51367 99.7676 7.62891 102.076 7.62891C106.096 7.62891 108.123 9.89648 108.158 14.4316V27H104.906V14.4141C104.895 13.043 104.578 12.0293 103.957 11.373C103.348 10.7168 102.393 10.3887 101.092 10.3887C100.037 10.3887 99.1113 10.6699 98.3145 11.2324C97.5176 11.7949 96.8965 12.5332 96.4512 13.4473V27H93.1992V0H96.4512V10.2832Z" />
<path d="M120.656 24.6973C121.816 24.6973 122.83 24.3457 123.697 23.6426C124.564 22.9395 125.045 22.0605 125.139 21.0059H128.215C128.156 22.0957 127.781 23.1328 127.09 24.1172C126.398 25.1016 125.473 25.8867 124.312 26.4727C123.164 27.0586 121.945 27.3516 120.656 27.3516C118.066 27.3516 116.004 26.4902 114.469 24.7676C112.945 23.0332 112.184 20.666 112.184 17.666V17.1211C112.184 15.2695 112.523 13.623 113.203 12.1816C113.883 10.7402 114.855 9.62109 116.121 8.82422C117.398 8.02734 118.904 7.62891 120.639 7.62891C122.771 7.62891 124.541 8.26758 125.947 9.54492C127.365 10.8223 128.121 12.4805 128.215 14.5195H125.139C125.045 13.2891 124.576 12.2812 123.732 11.4961C122.9 10.6992 121.869 10.3008 120.639 10.3008C118.986 10.3008 117.703 10.8984 116.789 12.0938C115.887 13.2773 115.436 14.9941 115.436 17.2441V17.8594C115.436 20.0508 115.887 21.7383 116.789 22.9219C117.691 24.1055 118.98 24.6973 120.656 24.6973Z" />
<path d="M135.123 10.2832C136.564 8.51367 138.439 7.62891 140.748 7.62891C144.768 7.62891 146.795 9.89648 146.83 14.4316V27H143.578V14.4141C143.566 13.043 143.25 12.0293 142.629 11.373C142.02 10.7168 141.064 10.3887 139.764 10.3887C138.709 10.3887 137.783 10.6699 136.986 11.2324C136.189 11.7949 135.568 12.5332 135.123 13.4473V27H131.871V0H135.123V10.2832Z" />
<path d="M163.441 27C163.254 26.625 163.102 25.957 162.984 24.9961C161.473 26.5664 159.668 27.3516 157.57 27.3516C155.695 27.3516 154.154 26.8242 152.947 25.7695C151.752 24.7031 151.154 23.3555 151.154 21.7266C151.154 19.7461 151.904 18.2109 153.404 17.1211C154.916 16.0195 157.037 15.4688 159.768 15.4688H162.932V13.9746C162.932 12.8379 162.592 11.9355 161.912 11.2676C161.232 10.5879 160.23 10.248 158.906 10.248C157.746 10.248 156.773 10.541 155.988 11.127C155.203 11.7129 154.811 12.4219 154.811 13.2539H151.541C151.541 12.3047 151.875 11.3906 152.543 10.5117C153.223 9.62109 154.137 8.91797 155.285 8.40234C156.445 7.88672 157.717 7.62891 159.1 7.62891C161.291 7.62891 163.008 8.17969 164.25 9.28125C165.492 10.3711 166.137 11.877 166.184 13.7988V22.5527C166.184 24.2988 166.406 25.6875 166.852 26.7188V27H163.441ZM158.045 24.5215C159.064 24.5215 160.031 24.2578 160.945 23.7305C161.859 23.2031 162.521 22.5176 162.932 21.6738V17.7715H160.383C156.398 17.7715 154.406 18.9375 154.406 21.2695C154.406 22.2891 154.746 23.0859 155.426 23.6602C156.105 24.2344 156.979 24.5215 158.045 24.5215Z" />
<path d="M170.508 17.332C170.508 14.3672 171.193 12.0117 172.564 10.2656C173.936 8.50781 175.752 7.62891 178.014 7.62891C180.334 7.62891 182.145 8.44922 183.445 10.0898L183.604 7.98047H186.574V26.543C186.574 29.0039 185.842 30.9434 184.377 32.3613C182.924 33.7793 180.967 34.4883 178.506 34.4883C177.135 34.4883 175.793 34.1953 174.48 33.6094C173.168 33.0234 172.166 32.2207 171.475 31.2012L173.162 29.25C174.557 30.9727 176.262 31.834 178.277 31.834C179.859 31.834 181.09 31.3887 181.969 30.498C182.859 29.6074 183.305 28.3535 183.305 26.7363V25.1016C182.004 26.6016 180.229 27.3516 177.979 27.3516C175.752 27.3516 173.947 26.4551 172.564 24.6621C171.193 22.8691 170.508 20.4258 170.508 17.332ZM173.777 17.7012C173.777 19.8457 174.217 21.5332 175.096 22.7637C175.975 23.9824 177.205 24.5918 178.787 24.5918C180.838 24.5918 182.344 23.6602 183.305 21.7969V13.1133C182.309 11.2969 180.814 10.3887 178.822 10.3887C177.24 10.3887 176.004 11.0039 175.113 12.2344C174.223 13.4648 173.777 15.2871 173.777 17.7012Z" />
<path d="M195.029 27H191.777V7.98047H195.029V27ZM191.514 2.93555C191.514 2.4082 191.672 1.96289 191.988 1.59961C192.316 1.23633 192.797 1.05469 193.43 1.05469C194.062 1.05469 194.543 1.23633 194.871 1.59961C195.199 1.96289 195.363 2.4082 195.363 2.93555C195.363 3.46289 195.199 3.90234 194.871 4.25391C194.543 4.60547 194.062 4.78125 193.43 4.78125C192.797 4.78125 192.316 4.60547 191.988 4.25391C191.672 3.90234 191.514 3.46289 191.514 2.93555Z" />
<path d="M203.326 7.98047L203.432 10.3711C204.885 8.54297 206.783 7.62891 209.127 7.62891C213.146 7.62891 215.174 9.89648 215.209 14.4316V27H211.957V14.4141C211.945 13.043 211.629 12.0293 211.008 11.373C210.398 10.7168 209.443 10.3887 208.143 10.3887C207.088 10.3887 206.162 10.6699 205.365 11.2324C204.568 11.7949 203.947 12.5332 203.502 13.4473V27H200.25V7.98047H203.326Z" />
    <style>
        @keyframes stroke-animation {
            to {
                stroke-dashoffset: 0;
            }
        }

        @keyframes fill-animation {
            from {
                fill: transparent;
            }

            to {
                fill: #00CBA9;
            }
        }

        svg {
            animation: fill-animation 1s linear forwards 8s;
        }

        path {
            stroke: #00CBA9;
        }

        path:nth-child(1) {
            stroke-dasharray: 110;
            stroke-dashoffset: 110;
            animation: stroke-animation 2s linear forwards;
        }

        path:nth-child(2) {
            stroke-dasharray: 110;
            stroke-dashoffset: 110;
            animation: stroke-animation 2s linear forwards 0.9s;
        }

        path:nth-child(3) {
            stroke-dasharray: 59;
            stroke-dashoffset: 59;
            animation: stroke-animation 2s linear forwards 1.5s;
        }

        path:nth-child(4) {
            stroke-dasharray: 110;
            stroke-dashoffset: 110;
            animation: stroke-animation 2s linear forwards 2s;
        }

        path:nth-child(5) {
            stroke-dasharray: 103;
            stroke-dashoffset: 103;
            animation: stroke-animation 2s linear forwards 2.5s;
        }

        path:nth-child(6) {
            stroke-dasharray: 115;
            stroke-dashoffset: 115;
            animation: stroke-animation 2s linear forwards 3s;
        }

        path:nth-child(7) {
            stroke-dasharray: 92;
            stroke-dashoffset: 92;
            animation: stroke-animation 2s linear forwards 3.5s;
        }

        path:nth-child(8) {
            stroke-dasharray: 115;
            stroke-dashoffset: 115;
            animation: stroke-animation 2s linear forwards 4s;
        }

        path:nth-child(9) {
            stroke-dasharray: 113;
            stroke-dashoffset: 113;
            animation: stroke-animation 2s linear forwards 4.5s;
        }

        path:nth-child(10) {
            stroke-dasharray: 143;
            stroke-dashoffset: 143;
            animation: stroke-animation 2s linear forwards 5s;
        }

        path:nth-child(11) {
            stroke-dasharray: 57;
            stroke-dashoffset: 57;
            animation: stroke-animation 2s linear forwards 5.5s;
        }

        path:nth-child(12) {
            stroke-dasharray: 99;
            stroke-dashoffset: 99;
            animation: stroke-animation 2s linear forwards 6s;
        }
    </style>
</svg>
