<svg xmlns="http://www.w3.org/2000/svg" width="24" height="24" viewBox="0 0 24 24">
    <circle cx="12" cy="12" r="12" />
    <path
        d="M12 2c5.514 0 10 4.486 10 10s-4.486 10-10 10-10-4.486-10-10 4.486-10 10-10zm0-2c-6.627 0-12 5.373-12 12s5.373 12 12 12 12-5.373 12-12-5.373-12-12-12zm-2 8c0 .557-.447 1.008-1 1.008s-1-.45-1-1.008c0-.557.447-1.008 1-1.008s1 .452 1 1.008zm0 2h-2v6h2v-6zm3 0h-2v6h2v-2.861c0-1.722 2.002-1.881 2.002 0v2.861h1.998v-3.359c0-3.284-3.128-3.164-4-1.548v-1.093z" />
    <style>
        @-webkit-keyframes img-animation {
            from {
                fill: transparent;
            }

            to {
                fill: #FFF;
            }
        }

        @-moz-keyframes img-animation {
            from {
                fill: transparent;
            }

            to {
                fill: #FFF;
            }
        }

        @-o-keyframes img-animation {
            from {
                fill: transparent;
            }

            to {
                fill: #FFF;
            }
        }

        @keyframes img-animation {
            from {
                fill: transparent;
            }

            to {
                fill: #FFF;
            }
        }

        @-webkit-keyframes circle-animation {
            from {
                fill: transparent;
            }

            to {
                fill: #0d1117;
            }
        }

        @-moz-keyframes circle-animation {
            from {
                fill: transparent;
            }

            to {
                fill: #0d1117;
            }
        }

        @-o-keyframes circle-animation {
            from {
                fill: transparent;
            }

            to {
                fill: #0d1117;
            }
        }

        @keyframes circle-animation {
            from {
                fill: transparent;
            }

            to {
                fill: #0d1117;
            }
        }

        circle {
            fill: transparent;
            -webkit-animation: circle-animation 1s linear forwards 11s;
            -moz-animation: circle-animation 1s linear forwards 11s;
            -o-animation: circle-animation 1s linear forwards 11s;
            animation: circle-animation 1s linear forwards 11s;
        }

        path {
            fill: transparent;
            -webkit-animation: img-animation 1s linear forwards 11s;
            -moz-animation: img-animation 1s linear forwards 11s;
            -o-animation: img-animation 1s linear forwards 11s;
            animation: img-animation 1s linear forwards 11s;
        }
    </style>
</svg>