<svg xmlns="http://www.w3.org/2000/svg" width="24" height="24" viewBox="0 0 24 24">
    <circle cx="12" cy="12" r="12" />
    <path
        d="M12 2c5.514 0 10 4.486 10 10s-4.486 10-10 10-10-4.486-10-10 4.486-10 10-10zm0-2c-6.627 0-12 5.373-12 12s5.373 12 12 12 12-5.373 12-12-5.373-12-12-12zm5.494 12.983c.679-3.882-2.708-7.206-6.527-6.49-2.91-1.78-6.251 1.614-4.466 4.515-.694 3.873 2.69 7.24 6.541 6.504 2.916 1.769 6.246-1.629 4.452-4.529zm-5.302 2.945c-1.59 0-3.189-.724-3.181-1.97.002-.376.281-.721.653-.721.938 0 .929 1.397 2.42 1.397 1.046 0 1.403-.573 1.403-.972 0-1.443-4.521-.56-4.521-3.272 0-1.468 1.201-2.481 3.089-2.37 1.801.106 2.856.902 2.959 1.645.05.485-.271.863-.83.863-.814 0-.897-1.09-2.3-1.09-.633 0-1.167.264-1.167.837 0 1.197 4.495.502 4.495 3.138.001 1.519-1.211 2.515-3.02 2.515z" />
    <style>
        @-webkit-keyframes img-animation {
            from {
                fill: transparent;
            }

            to {
                fill: #FFF;
            }
        }

        @-moz-keyframes img-animation {
            from {
                fill: transparent;
            }

            to {
                fill: #FFF;
            }
        }

        @-o-keyframes img-animation {
            from {
                fill: transparent;
            }

            to {
                fill: #FFF;
            }
        }

        @keyframes img-animation {
            from {
                fill: transparent;
            }

            to {
                fill: #FFF;
            }
        }

        @-webkit-keyframes circle-animation {
            from {
                fill: transparent;
            }

            to {
                fill: #0d1117;
            }
        }

        @-moz-keyframes circle-animation {
            from {
                fill: transparent;
            }

            to {
                fill: #0d1117;
            }
        }

        @-o-keyframes circle-animation {
            from {
                fill: transparent;
            }

            to {
                fill: #0d1117;
            }
        }

        @keyframes circle-animation {
            from {
                fill: transparent;
            }

            to {
                fill: #0d1117;
            }
        }

        circle {
            fill: transparent;
            -webkit-animation: circle-animation 1s linear forwards 11s;
            -moz-animation: circle-animation 1s linear forwards 11s;
            -o-animation: circle-animation 1s linear forwards 11s;
            animation: circle-animation 1s linear forwards 11s;
        }

        path {
            fill: transparent;
            -webkit-animation: img-animation 1s linear forwards 11s;
            -moz-animation: img-animation 1s linear forwards 11s;
            -o-animation: img-animation 1s linear forwards 11s;
            animation: img-animation 1s linear forwards 11s;
        }
    </style>
</svg>