<svg width="1440px" height="320px" xmlns="http://www.w3.org/2000/svg" viewBox="0 0 1440 320">
  <style>
    #wave-bottom-0 {
      -webkit-animation: waveAnime 10s linear infinite;
      -moz-animation: waveAnime 10s linear infinite;
      -o-animation: waveAnime 10s linear infinite;
      animation: waveAnime 10s linear infinite;
      fill: #00cba9a0;
    }

    #wave-bottom-1 {
      -webkit-animation: waveAnime 10s 2s linear infinite;
      -moz-animation: waveAnime 10s 2s linear infinite;
      -o-animation: waveAnime 10s 2s linear infinite;
      animation: waveAnime 10s 2s linear infinite;
      fill: #00cba980;
    }

    #wave-bottom-2 {
      -webkit-animation: waveAnime 10s 4s linear infinite;
      -moz-animation: waveAnime 10s 4s linear infinite;
      -o-animation: waveAnime 10s 4s linear infinite;
      animation: waveAnime 10s 4s linear infinite;
      fill: #00cba960;
    }

    @-webkit-keyframes waveAnime {
      0% {
        d: path('M0,288L34.3,266.7C68.6,245,137,203,206,181.3C274.3,160,343,160,411,186.7C480,213,549,267,617,256C685.7,245,754,171,823,165.3C891.4,160,960,224,1029,208C1097.1,192,1166,96,1234,48C1302.9,0,1371,0,1406,0L1440,0L1440,0L1405.7,0C1371.4,0,1303,0,1234,0C1165.7,0,1097,0,1029,0C960,0,891,0,823,0C754.3,0,686,0,617,0C548.6,0,480,0,411,0C342.9,0,274,0,206,0C137.1,0,69,0,34,0L0,0Z')
      }

      25% {
        d: path('M0,96L34.3,122.7C68.6,149,137,203,206,229.3C274.3,256,343,256,411,213.3C480,171,549,85,617,42.7C685.7,0,754,0,823,26.7C891.4,53,960,107,1029,133.3C1097.1,160,1166,160,1234,181.3C1302.9,203,1371,245,1406,266.7L1440,288L1440,0L1405.7,0C1371.4,0,1303,0,1234,0C1165.7,0,1097,0,1029,0C960,0,891,0,823,0C754.3,0,686,0,617,0C548.6,0,480,0,411,0C342.9,0,274,0,206,0C137.1,0,69,0,34,0L0,0Z')
      }

      50% {
        d: path('M0,128L34.3,160C68.6,192,137,256,206,277.3C274.3,299,343,277,411,277.3C480,277,549,299,617,309.3C685.7,320,754,320,823,293.3C891.4,267,960,213,1029,165.3C1097.1,117,1166,75,1234,58.7C1302.9,43,1371,53,1406,58.7L1440,64L1440,0L1405.7,0C1371.4,0,1303,0,1234,0C1165.7,0,1097,0,1029,0C960,0,891,0,823,0C754.3,0,686,0,617,0C548.6,0,480,0,411,0C342.9,0,274,0,206,0C137.1,0,69,0,34,0L0,0Z')
      }

      75% {
        d: path('M0,320L34.3,309.3C68.6,299,137,277,206,266.7C274.3,256,343,256,411,229.3C480,203,549,149,617,149.3C685.7,149,754,203,823,240C891.4,277,960,299,1029,266.7C1097.1,235,1166,149,1234,138.7C1302.9,128,1371,192,1406,224L1440,256L1440,0L1405.7,0C1371.4,0,1303,0,1234,0C1165.7,0,1097,0,1029,0C960,0,891,0,823,0C754.3,0,686,0,617,0C548.6,0,480,0,411,0C342.9,0,274,0,206,0C137.1,0,69,0,34,0L0,0Z')
      }

      100% {
        d: path('M0,288L34.3,266.7C68.6,245,137,203,206,181.3C274.3,160,343,160,411,186.7C480,213,549,267,617,256C685.7,245,754,171,823,165.3C891.4,160,960,224,1029,208C1097.1,192,1166,96,1234,48C1302.9,0,1371,0,1406,0L1440,0L1440,0L1405.7,0C1371.4,0,1303,0,1234,0C1165.7,0,1097,0,1029,0C960,0,891,0,823,0C754.3,0,686,0,617,0C548.6,0,480,0,411,0C342.9,0,274,0,206,0C137.1,0,69,0,34,0L0,0Z')
      }
    }

    @-moz-keyframes waveAnime {
      0% {
        d: path('M0,288L34.3,266.7C68.6,245,137,203,206,181.3C274.3,160,343,160,411,186.7C480,213,549,267,617,256C685.7,245,754,171,823,165.3C891.4,160,960,224,1029,208C1097.1,192,1166,96,1234,48C1302.9,0,1371,0,1406,0L1440,0L1440,0L1405.7,0C1371.4,0,1303,0,1234,0C1165.7,0,1097,0,1029,0C960,0,891,0,823,0C754.3,0,686,0,617,0C548.6,0,480,0,411,0C342.9,0,274,0,206,0C137.1,0,69,0,34,0L0,0Z')
      }

      25% {
        d: path('M0,96L34.3,122.7C68.6,149,137,203,206,229.3C274.3,256,343,256,411,213.3C480,171,549,85,617,42.7C685.7,0,754,0,823,26.7C891.4,53,960,107,1029,133.3C1097.1,160,1166,160,1234,181.3C1302.9,203,1371,245,1406,266.7L1440,288L1440,0L1405.7,0C1371.4,0,1303,0,1234,0C1165.7,0,1097,0,1029,0C960,0,891,0,823,0C754.3,0,686,0,617,0C548.6,0,480,0,411,0C342.9,0,274,0,206,0C137.1,0,69,0,34,0L0,0Z')
      }

      50% {
        d: path('M0,128L34.3,160C68.6,192,137,256,206,277.3C274.3,299,343,277,411,277.3C480,277,549,299,617,309.3C685.7,320,754,320,823,293.3C891.4,267,960,213,1029,165.3C1097.1,117,1166,75,1234,58.7C1302.9,43,1371,53,1406,58.7L1440,64L1440,0L1405.7,0C1371.4,0,1303,0,1234,0C1165.7,0,1097,0,1029,0C960,0,891,0,823,0C754.3,0,686,0,617,0C548.6,0,480,0,411,0C342.9,0,274,0,206,0C137.1,0,69,0,34,0L0,0Z')
      }

      75% {
        d: path('M0,320L34.3,309.3C68.6,299,137,277,206,266.7C274.3,256,343,256,411,229.3C480,203,549,149,617,149.3C685.7,149,754,203,823,240C891.4,277,960,299,1029,266.7C1097.1,235,1166,149,1234,138.7C1302.9,128,1371,192,1406,224L1440,256L1440,0L1405.7,0C1371.4,0,1303,0,1234,0C1165.7,0,1097,0,1029,0C960,0,891,0,823,0C754.3,0,686,0,617,0C548.6,0,480,0,411,0C342.9,0,274,0,206,0C137.1,0,69,0,34,0L0,0Z')
      }

      100% {
        d: path('M0,288L34.3,266.7C68.6,245,137,203,206,181.3C274.3,160,343,160,411,186.7C480,213,549,267,617,256C685.7,245,754,171,823,165.3C891.4,160,960,224,1029,208C1097.1,192,1166,96,1234,48C1302.9,0,1371,0,1406,0L1440,0L1440,0L1405.7,0C1371.4,0,1303,0,1234,0C1165.7,0,1097,0,1029,0C960,0,891,0,823,0C754.3,0,686,0,617,0C548.6,0,480,0,411,0C342.9,0,274,0,206,0C137.1,0,69,0,34,0L0,0Z')
      }
    }

    @-o-keyframes waveAnime {
      0% {
        d: path('M0,288L34.3,266.7C68.6,245,137,203,206,181.3C274.3,160,343,160,411,186.7C480,213,549,267,617,256C685.7,245,754,171,823,165.3C891.4,160,960,224,1029,208C1097.1,192,1166,96,1234,48C1302.9,0,1371,0,1406,0L1440,0L1440,0L1405.7,0C1371.4,0,1303,0,1234,0C1165.7,0,1097,0,1029,0C960,0,891,0,823,0C754.3,0,686,0,617,0C548.6,0,480,0,411,0C342.9,0,274,0,206,0C137.1,0,69,0,34,0L0,0Z')
      }

      25% {
        d: path('M0,96L34.3,122.7C68.6,149,137,203,206,229.3C274.3,256,343,256,411,213.3C480,171,549,85,617,42.7C685.7,0,754,0,823,26.7C891.4,53,960,107,1029,133.3C1097.1,160,1166,160,1234,181.3C1302.9,203,1371,245,1406,266.7L1440,288L1440,0L1405.7,0C1371.4,0,1303,0,1234,0C1165.7,0,1097,0,1029,0C960,0,891,0,823,0C754.3,0,686,0,617,0C548.6,0,480,0,411,0C342.9,0,274,0,206,0C137.1,0,69,0,34,0L0,0Z')
      }

      50% {
        d: path('M0,128L34.3,160C68.6,192,137,256,206,277.3C274.3,299,343,277,411,277.3C480,277,549,299,617,309.3C685.7,320,754,320,823,293.3C891.4,267,960,213,1029,165.3C1097.1,117,1166,75,1234,58.7C1302.9,43,1371,53,1406,58.7L1440,64L1440,0L1405.7,0C1371.4,0,1303,0,1234,0C1165.7,0,1097,0,1029,0C960,0,891,0,823,0C754.3,0,686,0,617,0C548.6,0,480,0,411,0C342.9,0,274,0,206,0C137.1,0,69,0,34,0L0,0Z')
      }

      75% {
        d: path('M0,320L34.3,309.3C68.6,299,137,277,206,266.7C274.3,256,343,256,411,229.3C480,203,549,149,617,149.3C685.7,149,754,203,823,240C891.4,277,960,299,1029,266.7C1097.1,235,1166,149,1234,138.7C1302.9,128,1371,192,1406,224L1440,256L1440,0L1405.7,0C1371.4,0,1303,0,1234,0C1165.7,0,1097,0,1029,0C960,0,891,0,823,0C754.3,0,686,0,617,0C548.6,0,480,0,411,0C342.9,0,274,0,206,0C137.1,0,69,0,34,0L0,0Z')
      }

      100% {
        d: path('M0,288L34.3,266.7C68.6,245,137,203,206,181.3C274.3,160,343,160,411,186.7C480,213,549,267,617,256C685.7,245,754,171,823,165.3C891.4,160,960,224,1029,208C1097.1,192,1166,96,1234,48C1302.9,0,1371,0,1406,0L1440,0L1440,0L1405.7,0C1371.4,0,1303,0,1234,0C1165.7,0,1097,0,1029,0C960,0,891,0,823,0C754.3,0,686,0,617,0C548.6,0,480,0,411,0C342.9,0,274,0,206,0C137.1,0,69,0,34,0L0,0Z')
      }
    }

    @keyframes waveAnime {
      0% {
        d: path('M0,288L34.3,266.7C68.6,245,137,203,206,181.3C274.3,160,343,160,411,186.7C480,213,549,267,617,256C685.7,245,754,171,823,165.3C891.4,160,960,224,1029,208C1097.1,192,1166,96,1234,48C1302.9,0,1371,0,1406,0L1440,0L1440,0L1405.7,0C1371.4,0,1303,0,1234,0C1165.7,0,1097,0,1029,0C960,0,891,0,823,0C754.3,0,686,0,617,0C548.6,0,480,0,411,0C342.9,0,274,0,206,0C137.1,0,69,0,34,0L0,0Z')
      }

      25% {
        d: path('M0,96L34.3,122.7C68.6,149,137,203,206,229.3C274.3,256,343,256,411,213.3C480,171,549,85,617,42.7C685.7,0,754,0,823,26.7C891.4,53,960,107,1029,133.3C1097.1,160,1166,160,1234,181.3C1302.9,203,1371,245,1406,266.7L1440,288L1440,0L1405.7,0C1371.4,0,1303,0,1234,0C1165.7,0,1097,0,1029,0C960,0,891,0,823,0C754.3,0,686,0,617,0C548.6,0,480,0,411,0C342.9,0,274,0,206,0C137.1,0,69,0,34,0L0,0Z')
      }

      50% {
        d: path('M0,128L34.3,160C68.6,192,137,256,206,277.3C274.3,299,343,277,411,277.3C480,277,549,299,617,309.3C685.7,320,754,320,823,293.3C891.4,267,960,213,1029,165.3C1097.1,117,1166,75,1234,58.7C1302.9,43,1371,53,1406,58.7L1440,64L1440,0L1405.7,0C1371.4,0,1303,0,1234,0C1165.7,0,1097,0,1029,0C960,0,891,0,823,0C754.3,0,686,0,617,0C548.6,0,480,0,411,0C342.9,0,274,0,206,0C137.1,0,69,0,34,0L0,0Z')
      }

      75% {
        d: path('M0,320L34.3,309.3C68.6,299,137,277,206,266.7C274.3,256,343,256,411,229.3C480,203,549,149,617,149.3C685.7,149,754,203,823,240C891.4,277,960,299,1029,266.7C1097.1,235,1166,149,1234,138.7C1302.9,128,1371,192,1406,224L1440,256L1440,0L1405.7,0C1371.4,0,1303,0,1234,0C1165.7,0,1097,0,1029,0C960,0,891,0,823,0C754.3,0,686,0,617,0C548.6,0,480,0,411,0C342.9,0,274,0,206,0C137.1,0,69,0,34,0L0,0Z')
      }

      100% {
        d: path('M0,288L34.3,266.7C68.6,245,137,203,206,181.3C274.3,160,343,160,411,186.7C480,213,549,267,617,256C685.7,245,754,171,823,165.3C891.4,160,960,224,1029,208C1097.1,192,1166,96,1234,48C1302.9,0,1371,0,1406,0L1440,0L1440,0L1405.7,0C1371.4,0,1303,0,1234,0C1165.7,0,1097,0,1029,0C960,0,891,0,823,0C754.3,0,686,0,617,0C548.6,0,480,0,411,0C342.9,0,274,0,206,0C137.1,0,69,0,34,0L0,0Z')
      }
    }
  </style>

  <path id="wave-bottom-0"
    d="M0,288L34.3,266.7C68.6,245,137,203,206,181.3C274.3,160,343,160,411,186.7C480,213,549,267,617,256C685.7,245,754,171,823,165.3C891.4,160,960,224,1029,208C1097.1,192,1166,96,1234,48C1302.9,0,1371,0,1406,0L1440,0L1440,0L1405.7,0C1371.4,0,1303,0,1234,0C1165.7,0,1097,0,1029,0C960,0,891,0,823,0C754.3,0,686,0,617,0C548.6,0,480,0,411,0C342.9,0,274,0,206,0C137.1,0,69,0,34,0L0,0Z">
  </path>
  <path id="wave-bottom-1"
    d="M0,288L34.3,266.7C68.6,245,137,203,206,181.3C274.3,160,343,160,411,186.7C480,213,549,267,617,256C685.7,245,754,171,823,165.3C891.4,160,960,224,1029,208C1097.1,192,1166,96,1234,48C1302.9,0,1371,0,1406,0L1440,0L1440,0L1405.7,0C1371.4,0,1303,0,1234,0C1165.7,0,1097,0,1029,0C960,0,891,0,823,0C754.3,0,686,0,617,0C548.6,0,480,0,411,0C342.9,0,274,0,206,0C137.1,0,69,0,34,0L0,0Z">
  </path>
  <path id="wave-bottom-2"
    d="M0,288L34.3,266.7C68.6,245,137,203,206,181.3C274.3,160,343,160,411,186.7C480,213,549,267,617,256C685.7,245,754,171,823,165.3C891.4,160,960,224,1029,208C1097.1,192,1166,96,1234,48C1302.9,0,1371,0,1406,0L1440,0L1440,0L1405.7,0C1371.4,0,1303,0,1234,0C1165.7,0,1097,0,1029,0C960,0,891,0,823,0C754.3,0,686,0,617,0C548.6,0,480,0,411,0C342.9,0,274,0,206,0C137.1,0,69,0,34,0L0,0Z">
  </path>
</svg>